<svg width="512" height="512" viewBox="0 0 512 512" xmlns="http://www.w3.org/2000/svg">
  <g fill="none" fill-rule="evenodd">
    <!-- 书籍封面 -->
    <rect x="128.0" y="128.0" width="153.6" height="307.2" fill="#2C3E50"/>

    <!-- 书籍页面 -->
    <rect x="281.6" y="143.36" width="102.4" height="276.48" fill="#FFFFFF"/>

    <!-- 页面文字线 -->
    <rect x="294.4" y="174.07999999999998" width="51.2" height="15.36" fill="#2C3E50"/>
    <rect x="294.4" y="195.58399999999997" width="76.8" height="15.36" fill="#2C3E50"/>
    <rect x="294.4" y="217.088" width="76.8" height="15.36" fill="#2C3E50"/>
    <rect x="294.4" y="238.59199999999998" width="76.8" height="15.36" fill="#2C3E50"/>
    <rect x="294.4" y="260.096" width="76.8" height="15.36" fill="#2C3E50"/>
    <rect x="294.4" y="281.6" width="76.8" height="15.36" fill="#2C3E50"/>

    <!-- 放大镜手柄 -->
    <rect x="307.2" y="51.2" width="40.96" height="153.6" fill="#3498DB"/>

    <!-- 放大镜镜框 -->
    <circle cx="327.68" cy="12.800000000000004" r="76.8" stroke="#3498DB" stroke-width="10" fill="none"/>

    <!-- 神经网络连接点 -->
    <!-- 中心点 -->
    <circle cx="327.68" cy="12.800000000000004" r="10.24" fill="#2ECC71"/>

    <!-- 周围连接点和连线 -->
    <line x1="327.68" y1="12.800000000000004" x2="373.76" y2="12.800000000000004" stroke="#3498DB" stroke-width="5"/>
    <circle cx="373.76" cy="12.800000000000004" r="10.24" fill="#3498DB"/>
    <line x1="327.68" y1="12.800000000000004" x2="350.72" y2="52.70645060638693" stroke="#3498DB" stroke-width="5"/>
    <circle cx="350.72" cy="52.70645060638693" r="10.24" fill="#3498DB"/>
    <line x1="327.68" y1="12.800000000000004" x2="304.64" y2="52.70645060638694" stroke="#3498DB" stroke-width="5"/>
    <circle cx="304.64" cy="52.70645060638694" r="10.24" fill="#3498DB"/>
    <line x1="327.68" y1="12.800000000000004" x2="281.6" y2="12.80000000000001" stroke="#3498DB" stroke-width="5"/>
    <circle cx="281.6" cy="12.80000000000001" r="10.24" fill="#3498DB"/>
    <line x1="327.68" y1="12.800000000000004" x2="304.64" y2="-27.106450606386915" stroke="#3498DB" stroke-width="5"/>
    <circle cx="304.64" cy="-27.106450606386915" r="10.24" fill="#3498DB"/>
    <line x1="327.68" y1="12.800000000000004" x2="350.72" y2="-27.10645060638692" stroke="#3498DB" stroke-width="5"/>
    <circle cx="350.72" cy="-27.10645060638692" r="10.24" fill="#3498DB"/>
  </g>
</svg>
